<?xml version="1.0" encoding="utf-8"?>
<!-- Generator: Adobe Illustrator 21.0.2, SVG Export Plug-In . SVG Version: 6.00 Build 0)  -->
<svg version="1.1" id="圖層_3" xmlns="http://www.w3.org/2000/svg" xmlns:xlink="http://www.w3.org/1999/xlink" x="0px" y="0px"
	 viewBox="0 0 841.9 163.2" style="enable-background:new 0 0 841.9 163.2;" xml:space="preserve">
<style type="text/css">
	.st0{fill:#FFFFFF;}
</style>
<g>
	<path class="st0" d="M145.5,6.6c-67.4,0-122,33-122,73.6s54.6,73.6,122,73.6s122-33,122-73.6S212.9,6.6,145.5,6.6z M217.7,94.9
		c-5-1.1-12.1-8.4-21.1-9.9c-9.1-1.5-15.8-0.4-19.9,7.6c-4.1,8-9.5,25.5-11,28.3c-1.5,2.8-12.9,9.9-25.7,0.6c-2.6-1.7-7.3-9.7-5-19
		c2.4-9.3,14-9.5,15.1-2.6c-2.4-0.4-7.8,0.2-5.2,5.8c2.6,5.6,11.7,3.9,14-1.5c2.4-5.4,2.6-10.4-1.9-14.2c-4.5-3.9-9.3-7.3-15.3-5.6
		c-6,1.7-13.6,7.8-18.1,10.1c-4.5,2.4-16.2,5.4-24.2,1.7s-17.7-14-25.9-16.8c-8.2-2.8-12.7-5.6-19.4-3.9c-6.9,2.2-13.2,4.2-13.2,1.9
		c0.2-1.1,13.5-12.3,30.2-9.3c14.7,2.6,13.4,9.5,28.9,10.1c12.6,0.5,16-12.1,18.3-22c2.6-11,12.3-24.6,28.5-17
		c15.5,10.8,6.9,24,5.6,25.7c-1.3,1.7-10.8,5.6-10.4,0.6c1.1-1.3,4.5-3.2,4.3-5.4c-0.2-2.2-2.2-6.5-6.9-6.5s-9.7,4.3-9.5,9.9
		s1.3,14,16.6,15.5c10.6,0.2,17.5-12.1,31.9-13.4c14.5-1.3,23.3,7.8,35.6,16.2c12.3,8.4,32.2,3.5,36.9,1.7
		C248.1,87.6,239.2,96.9,217.7,94.9z"/>
	<g>
		<path class="st0" d="M312.9,124.3c-0.8,0.3-1.5,0.7-2.1,1s-1.5,0.6-2.5,0.9c-0.9,0.3-1.8,0.5-2.9,0.7c-1,0.2-2.2,0.3-3.4,0.3
			c-2.3,0-4.4-0.3-6.3-1s-3.6-1.7-5-3.1s-2.5-3.1-3.2-5.2c-0.8-2.1-1.2-4.5-1.2-7.3c0-2.6,0.4-5,1.1-7.1s1.8-3.8,3.2-5.3
			c1.4-1.4,3-2.5,4.9-3.2s4.1-1.1,6.4-1.1c1.7,0,3.4,0.2,5.2,0.6c1.7,0.4,3.6,1.1,5.7,2.2v5.1h-0.3c-1.8-1.5-3.5-2.6-5.3-3.2
			c-1.7-0.7-3.6-1-5.6-1c-1.6,0-3.1,0.3-4.4,0.8s-2.5,1.3-3.5,2.4s-1.8,2.4-2.3,4.1c-0.6,1.6-0.8,3.5-0.8,5.7c0,2.3,0.3,4.2,0.9,5.8
			c0.6,1.6,1.4,2.9,2.4,4s2.2,1.8,3.5,2.4c1.3,0.5,2.8,0.8,4.3,0.8c2.1,0,4-0.4,5.8-1.1s3.5-1.8,5-3.2h0.3L312.9,124.3L312.9,124.3z
			"/>
		<path class="st0" d="M338.8,115.1H321c0,1.5,0.2,2.8,0.7,3.9c0.4,1.1,1.1,2,1.8,2.7c0.7,0.7,1.6,1.2,2.7,1.6
			c1,0.3,2.2,0.5,3.4,0.5c1.6,0,3.3-0.3,4.9-1c1.7-0.7,2.8-1.3,3.5-1.9h0.2v4.4c-1.4,0.6-2.8,1.1-4.2,1.4c-1.4,0.4-2.9,0.6-4.5,0.6
			c-4,0-7.1-1.1-9.3-3.2c-2.2-2.2-3.4-5.2-3.4-9.2c0-3.9,1.1-7.1,3.2-9.4s5-3.5,8.5-3.5c3.2,0,5.7,0.9,7.5,2.8s2.6,4.6,2.6,8.1v2.2
			H338.8z M334.8,112c0-2.1-0.5-3.8-1.6-4.9c-1.1-1.2-2.7-1.7-4.8-1.7c-2.2,0-3.9,0.6-5.2,1.9c-1.3,1.3-2,2.9-2.2,4.8h13.8V112z"/>
		<path class="st0" d="M365,126.7h-4V113c0-1.1-0.1-2.1-0.2-3.1s-0.4-1.7-0.7-2.3c-0.4-0.6-0.9-1.1-1.6-1.3
			c-0.7-0.3-1.5-0.4-2.6-0.4s-2.3,0.3-3.5,0.8s-2.4,1.2-3.5,2.1v18h-4v-24h4v2.7c1.3-1,2.6-1.9,3.9-2.5s2.7-0.9,4.2-0.9
			c2.6,0,4.6,0.8,5.9,2.3c1.4,1.6,2,3.8,2,6.8v15.5H365z"/>
		<path class="st0" d="M385.3,126.4c-0.8,0.2-1.6,0.4-2.5,0.5s-1.7,0.2-2.4,0.2c-2.5,0-4.3-0.7-5.6-2c-1.3-1.3-1.9-3.4-1.9-6.4V106
			h-2.7v-3.4h2.7v-6.9h4v6.9h8.4v3.4h-8.4v11c0,1.3,0,2.2,0.1,3c0.1,0.7,0.3,1.4,0.6,2c0.3,0.6,0.8,1,1.3,1.3
			c0.6,0.3,1.4,0.4,2.5,0.4c0.7,0,1.3-0.1,2.1-0.3c0.7-0.2,1.2-0.4,1.6-0.5h0.2L385.3,126.4L385.3,126.4z"/>
		<path class="st0" d="M405.2,107H405c-0.6-0.1-1.2-0.2-1.8-0.3c-0.6-0.1-1.2-0.1-2-0.1c-1.2,0-2.5,0.3-3.6,0.8
			c-1.2,0.6-2.3,1.3-3.4,2.1v17.1h-4v-24h4v3.6c1.6-1.3,3-2.2,4.3-2.7c1.2-0.5,2.5-0.8,3.8-0.8c0.7,0,1.2,0,1.5,0.1
			c0.3,0,0.8,0.1,1.4,0.2L405.2,107L405.2,107z"/>
		<path class="st0" d="M426.9,126.7h-4v-2.6c-0.4,0.2-0.8,0.6-1.5,1c-0.6,0.4-1.2,0.8-1.8,1c-0.7,0.3-1.5,0.6-2.3,0.8
			c-0.9,0.2-1.9,0.3-3.1,0.3c-2.2,0-4-0.7-5.5-2.2c-1.5-1.4-2.3-3.3-2.3-5.5c0-1.8,0.4-3.3,1.2-4.4c0.8-1.1,1.9-2,3.3-2.7
			c1.5-0.6,3.2-1.1,5.3-1.3c2.1-0.2,4.3-0.4,6.6-0.5V110c0-0.9-0.2-1.7-0.5-2.3c-0.3-0.6-0.8-1.1-1.4-1.4s-1.3-0.6-2.1-0.7
			c-0.8-0.1-1.6-0.2-2.5-0.2c-1.1,0-2.2,0.1-3.6,0.4c-1.3,0.3-2.7,0.7-4,1.2h-0.2v-4.1c0.8-0.2,1.9-0.5,3.4-0.7
			c1.5-0.3,3-0.4,4.4-0.4c1.7,0,3.2,0.1,4.4,0.4c1.3,0.3,2.3,0.8,3.3,1.4c0.9,0.7,1.6,1.5,2.1,2.6c0.5,1,0.7,2.3,0.7,3.9v16.6H426.9
			z M422.9,120.7V114c-1.2,0.1-2.7,0.2-4.4,0.3c-1.7,0.1-3,0.4-4,0.6c-1.2,0.3-2.1,0.8-2.8,1.5c-0.7,0.7-1.1,1.7-1.1,2.9
			c0,1.4,0.4,2.4,1.2,3.1c0.8,0.7,2.1,1,3.8,1c1.4,0,2.7-0.3,3.9-0.8C420.8,122.2,421.9,121.5,422.9,120.7z"/>
		<path class="st0" d="M438.8,126.7h-4V93.2h4V126.7z"/>
		<path class="st0" d="M499.9,94.6l-8.3,32.1h-4.8l-6.7-26.6l-6.6,26.6h-4.7l-8.5-32.1h4.4l6.7,26.7l6.6-26.7h4.3l6.7,26.9l6.7-26.9
			C495.7,94.6,499.9,94.6,499.9,94.6z"/>
		<path class="st0" d="M523.9,115.1h-17.7c0,1.5,0.2,2.8,0.7,3.9c0.4,1.1,1.1,2,1.8,2.7c0.7,0.7,1.6,1.2,2.7,1.6
			c1,0.3,2.2,0.5,3.4,0.5c1.6,0,3.3-0.3,4.9-1c1.7-0.7,2.8-1.3,3.5-1.9h0.2v4.4c-1.4,0.6-2.8,1.1-4.2,1.4c-1.4,0.4-2.9,0.6-4.5,0.6
			c-4,0-7.1-1.1-9.3-3.2c-2.2-2.2-3.4-5.2-3.4-9.2c0-3.9,1.1-7.1,3.2-9.4s5-3.5,8.5-3.5c3.2,0,5.7,0.9,7.5,2.8s2.6,4.6,2.6,8.1
			L523.9,115.1L523.9,115.1z M519.9,112c0-2.1-0.5-3.8-1.6-4.9c-1.1-1.2-2.7-1.7-4.8-1.7c-2.2,0-3.9,0.6-5.2,1.9
			c-1.3,1.3-2,2.9-2.2,4.8h13.8V112z"/>
		<path class="st0" d="M548.7,126.7h-4v-2.6c-0.4,0.2-0.8,0.6-1.5,1c-0.6,0.4-1.2,0.8-1.8,1c-0.7,0.3-1.5,0.6-2.3,0.8
			c-0.9,0.2-1.9,0.3-3.1,0.3c-2.2,0-4-0.7-5.5-2.2c-1.5-1.4-2.3-3.3-2.3-5.5c0-1.8,0.4-3.3,1.2-4.4s1.9-2,3.3-2.7
			c1.5-0.6,3.2-1.1,5.3-1.3c2.1-0.2,4.3-0.4,6.6-0.5V110c0-0.9-0.2-1.7-0.5-2.3c-0.3-0.6-0.8-1.1-1.4-1.4c-0.6-0.3-1.3-0.6-2.1-0.7
			s-1.6-0.2-2.5-0.2c-1.1,0-2.2,0.1-3.6,0.4c-1.3,0.3-2.7,0.7-4,1.2h-0.2v-4.1c0.8-0.2,1.9-0.5,3.4-0.7c1.5-0.3,3-0.4,4.4-0.4
			c1.7,0,3.2,0.1,4.4,0.4c1.3,0.3,2.3,0.8,3.3,1.4c0.9,0.7,1.6,1.5,2.1,2.6c0.5,1,0.7,2.3,0.7,3.9L548.7,126.7L548.7,126.7z
			 M544.7,120.7V114c-1.2,0.1-2.7,0.2-4.4,0.3c-1.7,0.1-3,0.4-4,0.6c-1.2,0.3-2.1,0.8-2.8,1.5s-1.1,1.7-1.1,2.9
			c0,1.4,0.4,2.4,1.2,3.1s2.1,1,3.8,1c1.4,0,2.7-0.3,3.9-0.8C542.6,122.2,543.7,121.5,544.7,120.7z"/>
		<path class="st0" d="M569,126.4c-0.8,0.2-1.6,0.4-2.5,0.5s-1.7,0.2-2.4,0.2c-2.5,0-4.3-0.7-5.6-2s-1.9-3.4-1.9-6.4V106h-2.7v-3.4
			h2.7v-6.9h4v6.9h8.4v3.4h-8.4v11c0,1.3,0,2.2,0.1,3c0.1,0.7,0.3,1.4,0.6,2s0.8,1,1.3,1.3c0.6,0.3,1.4,0.4,2.5,0.4
			c0.7,0,1.3-0.1,2.1-0.3c0.7-0.2,1.2-0.4,1.5-0.5h0.2v3.5H569z"/>
		<path class="st0" d="M594,126.7h-4V113c0-1.1-0.1-2.1-0.2-3.1c-0.1-1-0.4-1.7-0.7-2.3c-0.4-0.6-0.9-1.1-1.6-1.3
			c-0.7-0.3-1.5-0.4-2.6-0.4s-2.3,0.3-3.5,0.8s-2.4,1.2-3.5,2.1v18h-4V93.2h4v12.1c1.3-1,2.6-1.9,3.9-2.5c1.3-0.6,2.7-0.9,4.2-0.9
			c2.6,0,4.6,0.8,5.9,2.3c1.4,1.6,2,3.8,2,6.8L594,126.7L594,126.7z"/>
		<path class="st0" d="M621.9,115.1h-17.7c0,1.5,0.2,2.8,0.7,3.9c0.4,1.1,1.1,2,1.8,2.7s1.6,1.2,2.7,1.6c1,0.3,2.2,0.5,3.4,0.5
			c1.6,0,3.3-0.3,4.9-1c1.7-0.7,2.8-1.3,3.5-1.9h0.2v4.4c-1.4,0.6-2.8,1.1-4.2,1.4c-1.4,0.4-2.9,0.6-4.5,0.6c-4,0-7.1-1.1-9.3-3.2
			c-2.2-2.2-3.4-5.2-3.4-9.2c0-3.9,1.1-7.1,3.2-9.4c2.1-2.3,5-3.5,8.5-3.5c3.2,0,5.7,0.9,7.5,2.8s2.6,4.6,2.6,8.1L621.9,115.1
			L621.9,115.1z M618,112c0-2.1-0.5-3.8-1.6-4.9c-1.1-1.2-2.7-1.7-4.8-1.7c-2.2,0-3.9,0.6-5.2,1.9s-2,2.9-2.2,4.8H618V112z"/>
		<path class="st0" d="M643,107h-0.2c-0.6-0.1-1.2-0.2-1.8-0.3c-0.6-0.1-1.2-0.1-2-0.1c-1.2,0-2.5,0.3-3.6,0.8
			c-1.2,0.6-2.3,1.3-3.4,2.1v17.1h-4v-24h4v3.6c1.6-1.3,3-2.2,4.3-2.7c1.2-0.5,2.5-0.8,3.8-0.8c0.7,0,1.2,0,1.5,0.1
			c0.3,0,0.8,0.1,1.4,0.2V107z"/>
		<path class="st0" d="M686.9,116.8c0,1.6-0.3,3-0.9,4.2c-0.6,1.2-1.4,2.2-2.4,3c-1.2,0.9-2.5,1.6-4,2c-1.4,0.4-3.3,0.6-5.5,0.6
			h-11.4v-32h9.5c2.3,0,4.1,0.1,5.3,0.3c1.2,0.2,2.3,0.5,3.3,1.1c1.2,0.6,2,1.4,2.6,2.4c0.5,1,0.8,2.1,0.8,3.5
			c0,1.5-0.4,2.8-1.2,3.9s-1.8,1.9-3.1,2.6v0.2c2.2,0.4,3.9,1.4,5.1,2.9C686.2,112.7,686.9,114.6,686.9,116.8z M679.7,102.4
			c0-0.8-0.1-1.4-0.4-2c-0.3-0.5-0.7-1-1.2-1.3c-0.7-0.4-1.5-0.6-2.5-0.7s-2.2-0.1-3.6-0.1h-5.1v9.3h5.5c1.3,0,2.4-0.1,3.2-0.2
			s1.5-0.4,2.2-0.9c0.7-0.4,1.2-1,1.4-1.7C679.5,104.1,679.7,103.3,679.7,102.4z M682.4,117c0-1.3-0.2-2.3-0.6-3.1
			c-0.4-0.8-1.1-1.4-2.1-1.9c-0.7-0.4-1.5-0.6-2.5-0.7s-2.2-0.2-3.6-0.2h-6.7V123h5.6c1.9,0,3.4-0.1,4.6-0.3
			c1.2-0.2,2.2-0.5,2.9-1.1c0.8-0.6,1.4-1.2,1.8-1.9C682.2,119,682.4,118.1,682.4,117z"/>
		<path class="st0" d="M712.5,126.7h-4V124c-1.4,1.1-2.7,1.9-3.9,2.5s-2.6,0.9-4.1,0.9c-2.5,0-4.5-0.8-5.9-2.3s-2.1-3.8-2.1-6.8
			v-15.6h4v13.7c0,1.2,0.1,2.3,0.2,3.1c0.1,0.9,0.4,1.6,0.7,2.2c0.4,0.6,0.9,1.1,1.5,1.4s1.5,0.4,2.7,0.4c1,0,2.2-0.3,3.4-0.8
			s2.4-1.2,3.5-2.1v-18h4L712.5,126.7L712.5,126.7z"/>
		<path class="st0" d="M735.5,107h-0.2c-0.6-0.1-1.2-0.2-1.8-0.3c-0.6-0.1-1.2-0.1-2-0.1c-1.2,0-2.5,0.3-3.6,0.8
			c-1.2,0.6-2.3,1.3-3.4,2.1v17.1h-4v-24h4v3.6c1.6-1.3,3-2.2,4.3-2.7c1.2-0.5,2.5-0.8,3.8-0.8c0.7,0,1.2,0,1.5,0.1
			c0.3,0,0.8,0.1,1.4,0.2V107z"/>
		<path class="st0" d="M759.4,115.1h-17.7c0,1.5,0.2,2.8,0.7,3.9c0.4,1.1,1.1,2,1.8,2.7s1.6,1.2,2.7,1.6c1,0.3,2.2,0.5,3.4,0.5
			c1.6,0,3.3-0.3,4.9-1c1.7-0.7,2.8-1.3,3.5-1.9h0.2v4.4c-1.4,0.6-2.8,1.1-4.2,1.4c-1.4,0.4-2.9,0.6-4.5,0.6c-4,0-7.1-1.1-9.3-3.2
			c-2.2-2.2-3.4-5.2-3.4-9.2c0-3.9,1.1-7.1,3.2-9.4c2.1-2.3,5-3.5,8.5-3.5c3.2,0,5.7,0.9,7.5,2.8s2.6,4.6,2.6,8.1L759.4,115.1
			L759.4,115.1z M755.5,112c0-2.1-0.5-3.8-1.6-4.9c-1.1-1.2-2.7-1.7-4.8-1.7c-2.2,0-3.9,0.6-5.2,1.9s-2,2.9-2.2,4.8h13.8V112z"/>
		<path class="st0" d="M784.3,126.7h-4v-2.6c-0.4,0.2-0.8,0.6-1.5,1c-0.6,0.4-1.2,0.8-1.8,1c-0.7,0.3-1.5,0.6-2.3,0.8
			c-0.9,0.2-1.9,0.3-3.1,0.3c-2.2,0-4-0.7-5.5-2.2c-1.5-1.4-2.3-3.3-2.3-5.5c0-1.8,0.4-3.3,1.2-4.4s1.9-2,3.3-2.7
			c1.5-0.6,3.2-1.1,5.3-1.3c2.1-0.2,4.3-0.4,6.6-0.5V110c0-0.9-0.2-1.7-0.5-2.3c-0.3-0.6-0.8-1.1-1.4-1.4c-0.6-0.3-1.3-0.6-2.1-0.7
			s-1.6-0.2-2.5-0.2c-1.1,0-2.2,0.1-3.6,0.4c-1.3,0.3-2.7,0.7-4,1.2H766v-4.1c0.8-0.2,1.9-0.5,3.4-0.7c1.5-0.3,3-0.4,4.4-0.4
			c1.7,0,3.2,0.1,4.4,0.4c1.3,0.3,2.3,0.8,3.3,1.4c0.9,0.7,1.6,1.5,2.1,2.6c0.5,1,0.7,2.3,0.7,3.9L784.3,126.7L784.3,126.7z
			 M780.2,120.7V114c-1.2,0.1-2.7,0.2-4.4,0.3c-1.7,0.1-3,0.4-4,0.6c-1.2,0.3-2.1,0.8-2.8,1.5s-1.1,1.7-1.1,2.9
			c0,1.4,0.4,2.4,1.2,3.1s2.1,1,3.8,1c1.4,0,2.7-0.3,3.9-0.8C778.1,122.2,779.2,121.5,780.2,120.7z"/>
		<path class="st0" d="M812,126.7h-4V124c-1.4,1.1-2.7,1.9-3.9,2.5s-2.6,0.9-4.1,0.9c-2.5,0-4.5-0.8-5.9-2.3s-2.1-3.8-2.1-6.8v-15.6
			h4v13.7c0,1.2,0.1,2.3,0.2,3.1c0.1,0.9,0.4,1.6,0.7,2.2c0.4,0.6,0.9,1.1,1.5,1.4s1.5,0.4,2.7,0.4c1,0,2.2-0.3,3.4-0.8
			s2.4-1.2,3.5-2.1v-18h4L812,126.7L812,126.7z"/>
	</g>
	<g>
		<path class="st0" d="M338.9,29.3c0.4,0,0.7,0.2,0.7,0.7v2.1c0,0.5-0.2,0.7-0.7,0.7h-48.6c-0.4,0-0.7-0.2-0.7-0.7V30
			c0-0.5,0.2-0.7,0.7-0.7H338.9z M323.4,45.6c3.3,1.5,5,2.3,5,2.5c0,0.3-0.3,0.5-0.8,0.6c-0.6,0.1-0.9,0.5-1.1,1.2
			c-1.8,3.8-3.5,6.6-4.9,8.6c-1.4,1.9-3,3.7-4.8,5.3c-1.3,1.1-3.1,2.3-5.6,3.6c-2.3,1.1-4.9,2.2-8.1,3.3c-2.9,1-6.2,1.9-9.8,2.5
			c-0.3,0-0.6-0.2-0.8-0.6c-0.5-0.8-1.1-1.7-2-2.6c-0.3-0.3-0.4-0.5-0.5-0.8c2.3,0,4.6-0.3,6.9-1c2.4-0.6,4.9-1.5,7.7-2.5
			c3.1-1.3,5.5-2.6,7-3.7c1.9-1.1,3.5-2.4,4.8-4c1.4-1.7,2.7-3.4,3.8-5.2C321.4,50.7,322.5,48.3,323.4,45.6z M304.7,35l3.4,2.5
			c0.3,0.3,0.5,0.6,0.5,0.8s-0.2,0.3-0.6,0.4c-0.5,0.1-1,0.2-1.3,0.5c-1.5,1.8-3.1,3.5-4.8,5c-2,1.7-4.6,3.4-7.7,5.1
			c-0.5,0-0.8-0.2-1-0.5c-0.9-0.7-1.6-1.3-2.1-1.8c-0.3-0.1-0.5-0.3-0.5-0.4c0-0.1,0.1-0.3,0.3-0.4c1.5-0.5,2.8-1.1,3.7-1.7
			c2.1-1.3,3.9-2.7,5.4-4.2c1.3-1.3,2.8-2.9,4.4-4.8C304.5,35.2,304.6,35,304.7,35z M307.4,54.1c1.3,2,3,3.9,5.3,5.7
			c2.6,2.1,5.3,3.7,8.1,4.9c3.1,1.3,6.5,2.3,10.2,2.9c2.6,0.6,5.4,0.9,8.4,0.9c0,0.3-0.2,0.6-0.5,1c-0.4,1-0.8,1.9-1.2,2.9
			c-0.1,0.4-0.3,0.7-0.5,0.7c-3.7-0.4-6.9-0.9-9.7-1.6c-3.1-0.8-5.9-1.7-8.4-2.9c-3.1-1.4-6-3-8.5-4.9c-2.1-1.7-3.8-3.5-5.3-5.4
			c-1.8-2.2-3.6-5.7-5.5-10.5c0-0.1,1.3-0.6,3.9-1.4C304.8,49.5,306,52.1,307.4,54.1z M317.7,23.4c0,0.5-0.2,0.8-0.6,0.9
			c-0.4,0-0.6,0.4-0.6,1.2v4.8c0,0.5-0.3,0.8-0.9,0.8h-2.4c-0.6,0-0.9-0.3-0.9-0.8v-6.9c0-0.5,0.3-0.7,0.9-0.7
			C316.2,22.7,317.7,22.9,317.7,23.4z M338.2,46.3c0,0.2-0.1,0.4-0.4,0.7c-1.1,1.8-1.7,2.6-1.9,2.6c-5.1-2.9-10.3-6.7-15.6-11.4
			c0,0,0.7-0.9,2.1-2.5c0.3-0.4,0.5-0.5,0.6-0.5C328,39.7,333.1,43.4,338.2,46.3z"/>
		<path class="st0" d="M353.7,63.5h4c0,1.3,0.2,2.3,0.5,3c0.4,0.7,0.8,1.2,1.4,1.6c0.8,0.5,1.9,0.8,3.1,1c1.4,0.2,3.1,0.3,4.9,0.3
			h12c4.7,0,10.2-0.6,16.5-1.7c0.3-0.2,0.6-0.2,0.8-0.2c0.3,0,0.4,0.1,0.4,0.4c-0.5,1.5-0.8,3-1.1,4.5c-0.1,0.6-0.4,0.9-1,0.9h-15.7
			h-12c-1.3,0-2.6-0.1-3.9-0.2c-1.3-0.2-2.6-0.5-3.7-0.9s-2.1-0.9-3-1.6c-0.7-0.6-1.3-1.6-2-3l-0.2-0.2c-0.2,0-0.4,0.1-0.5,0.2
			c-3.6,2.9-5.6,4.9-5.9,5.9c-0.1,0.2-0.3,0.3-0.5,0.3c-0.3,0-1-1-2.2-3c-0.2-0.3-0.3-0.7-0.3-1.2c2.2-1,4.9-2.7,8.2-5.1
			C353.6,64.5,353.7,64.1,353.7,63.5z M356.9,48.3c0.5,0,0.8,0.2,0.8,0.7v15.1c0,0.5-0.3,0.7-0.9,0.7h-2.3c-0.5,0-0.8-0.2-0.8-0.7
			V51.8h-7.1c-0.4,0-0.7-0.2-0.7-0.7V49c0-0.5,0.2-0.7,0.7-0.7H356.9z M354,37.9c1.5,1.1,2.8,2.1,3.9,3c0,0.1-0.1,0.2-0.3,0.5
			c-1.2,1.6-1.8,2.4-1.9,2.4c-1.7-1.4-3.4-2.7-5.4-4c-1.6-0.9-2.9-1.6-3.9-2c0-0.2,0.6-1,1.9-2.4c0.2-0.3,0.4-0.4,0.5-0.4
			C350.9,36.1,352.6,37,354,37.9z M355,25.9c1.5,1,2.7,1.9,3.7,2.7c0,0.1-0.1,0.2-0.3,0.5c-1.2,1.6-1.8,2.4-1.9,2.4
			c-1.6-1.3-3.3-2.4-5.1-3.5c-1.5-0.8-2.7-1.4-3.7-1.8c0-0.2,0.6-1,1.9-2.4c0.2-0.3,0.4-0.4,0.5-0.4C352.1,24.2,353.8,25.1,355,25.9
			z M390.1,23.6L389,27h-24.9c-0.5,0-0.7-0.2-0.7-0.7v-1.9c0-0.5,0.2-0.7,0.7-0.7L390.1,23.6L390.1,23.6z M364.3,35.5h2.2
			c0.6,0,0.8,0.2,0.8,0.7v29.7c0,0.5-0.3,0.7-0.8,0.7h-2.2c-0.5,0-0.8-0.2-0.8-0.7V36.2C363.5,35.7,363.8,35.5,364.3,35.5z
			 M392.5,35.5c0.6,0,0.9,0.3,0.9,0.9v26.9c0,1.1-0.7,2-2.1,2.6c-1.3,0.5-3.1,0.8-5.3,0.9c-0.4,0-0.6-0.2-0.7-0.6
			c-0.1-0.8-0.5-1.9-1.3-3.4c0-0.1,0.1-0.2,0.4-0.2c2.5,0,3.9-0.1,4.4-0.3c0.5-0.3,0.8-0.7,0.8-1.2V39h-23.5c-0.5,0-0.7-0.2-0.7-0.7
			v-2.1c0-0.5,0.2-0.7,0.7-0.7H392.5z M390.9,44.4c0.4,0,0.6,0.2,0.6,0.7V47c0,0.5-0.2,0.7-0.6,0.7H366c-0.4,0-0.6-0.2-0.6-0.7v-1.9
			c0-0.5,0.2-0.7,0.6-0.7C366,44.4,390.9,44.4,390.9,44.4z M390.9,53.5c0.4,0,0.6,0.2,0.6,0.7v1.9c0,0.5-0.2,0.7-0.6,0.7H366
			c-0.4,0-0.6-0.2-0.6-0.7v-1.9c0-0.5,0.2-0.7,0.6-0.7H390.9z M377.9,31.5c2.2,0.9,4.1,1.8,5.6,2.5c0,0.1-0.1,0.2-0.3,0.5
			c-1.1,1.5-1.7,2.3-1.8,2.3c-2.4-1.2-4.9-2.3-7.6-3.3c-2.2-0.8-4.1-1.4-5.5-1.7c0-0.2,0.6-1,1.8-2.3c0.2-0.3,0.3-0.4,0.4-0.4
			C373.6,29.9,376,30.7,377.9,31.5z M389,23.6h1.1c0.5,0,0.8,0.1,1,0.2c0.7,0.6,1.1,1.1,1.1,1.4l-11.8,8.2c-0.2,0.2-0.6,0.2-0.9,0.2
			c-2.2-0.6-3.2-1.1-3.2-1.6L389,23.6z M376.2,37.2h4v29.1c0,0.5-0.3,0.7-0.9,0.7H377c-0.5,0-0.8-0.2-0.8-0.7V37.2z"/>
		<path class="st0" d="M431.2,45c0.4,0,0.7,0.2,0.7,0.7v2.1c0,0.5-0.2,0.7-0.7,0.7h-28.7c-0.4,0-0.7-0.2-0.7-0.7v-2.1
			c0-0.5,0.2-0.7,0.7-0.7H431.2z M429.9,28.8c0.4,0,0.7,0.2,0.7,0.7v2.1c0,0.5-0.2,0.7-0.7,0.7h-26.3c-0.4,0-0.7-0.2-0.7-0.7v-2.1
			c0-0.5,0.2-0.7,0.7-0.7C403.6,28.8,429.9,28.8,429.9,28.8z M406,52.9h2.3c0.6,0,0.9,0.2,0.9,0.7v18.9c0,0.5-0.3,0.7-0.9,0.7H406
			c-0.5,0-0.8-0.2-0.8-0.7V53.6C405.2,53.2,405.4,52.9,406,52.9z M411.9,38.6c0.6,1.4,1,3,1.4,4.6c0,0.2-1.3,0.6-3.9,1.3
			c-0.2-1-0.5-2.3-1-3.8c-0.6-1.7-1.3-3.4-2.2-5.2c0-0.3,1.1-0.9,3.3-2C410.5,35.4,411.3,37.1,411.9,38.6z M427.3,52.9
			c0.5,0,0.8,0.2,0.8,0.7v18.8c0,0.5-0.3,0.7-0.9,0.7H425c-0.5,0-0.8-0.2-0.8-0.7v-16h-16.3c-0.4,0-0.7-0.2-0.7-0.7v-2.1
			c0-0.5,0.2-0.7,0.7-0.7H427.3z M425.5,66.4c0.4,0,0.7,0.2,0.7,0.7v2.1c0,0.5-0.2,0.7-0.7,0.7h-17.7c-0.4,0-0.7-0.2-0.7-0.7v-2.1
			c0-0.5,0.2-0.7,0.7-0.7H425.5z M420.3,22.5c0,0.5-0.2,0.8-0.6,0.8s-0.6,0.4-0.6,1.1v5.4c0,0.5-0.3,0.7-0.9,0.7h-2.3
			c-0.5,0-0.8-0.2-0.8-0.7v-7.4c0-0.5,0.3-0.7,0.8-0.7C418.8,21.8,420.3,22,420.3,22.5z M424.1,33l3.4,1.4c0.5,0.2,0.8,0.5,0.8,0.8
			s-0.1,0.5-0.4,0.6c-0.4,0-0.7,0.2-0.8,0.6c-1.1,3.2-2.2,5.7-3.3,7.4c-0.2,0.4-0.4,0.5-0.6,0.5s-0.5-0.1-0.9-0.3
			c-0.8-0.4-1.5-0.7-2.1-1c-0.3-0.1-0.5-0.2-0.5-0.3s0.1-0.2,0.2-0.4c1-1.6,1.7-3,2.2-4.2c0.7-1.5,1.2-3.1,1.6-4.6
			C423.9,33.3,424,33,424.1,33z M435.1,24.1h2.3c0.6,0,0.9,0.2,0.9,0.7v47.7c0,0.5-0.3,0.7-0.9,0.7h-2.3c-0.5,0-0.8-0.2-0.8-0.7
			V24.8C434.3,24.3,434.6,24.1,435.1,24.1z M450.7,24.1v3.3h-13.6c-0.5,0-0.8-0.2-0.8-0.7v-2c0-0.4,0.3-0.7,0.8-0.7h13.6V24.1z
			 M450.7,24.1c0.7,0,1.2,0.1,1.5,0.4c1,0.8,1.5,1.3,1.5,1.6L445.8,42c-0.2,0.4-0.3,0.7-0.3,0.9s0.2,0.5,0.5,0.9
			c1.9,1.9,3.5,4.3,4.8,7c1.2,2.8,1.8,5.7,1.8,8.6c0,2-0.4,3.7-1.1,5.1c-0.9,1.5-2.1,2.6-3.6,3.2c-1,0.6-2.7,1-5.1,1
			c-0.9,0-1.4-0.3-1.4-0.9c-0.2-1.4-0.5-2.4-0.9-3.1c0-0.4,0.2-0.7,0.5-0.7l2.7,0.4c1.8,0,3-0.5,3.7-1.5c0.8-0.9,1.1-2.1,1.1-3.5
			c0-2.1-0.5-4.3-1.5-6.8c-1.3-2.8-3.2-5.6-5.7-8.3c-0.4-0.2-0.6-0.5-0.6-0.7s0.1-0.5,0.2-1L450.7,24.1z"/>
		<path class="st0" d="M462.3,32.6h2.4c0.6,0,0.9,0.3,0.9,0.8v25.1c0,0.5-0.3,0.8-0.9,0.8h-2.4c-0.6,0-0.9-0.3-0.9-0.8V33.4
			C461.4,32.9,461.7,32.6,462.3,32.6z M506,32.6c0.6,0,0.9,0.3,0.9,0.8v25.4c0,0.5-0.3,0.8-0.9,0.8h-2.4c-0.6,0-0.9-0.3-0.9-0.8
			V36.6h-38.5c-0.5,0-0.7-0.3-0.7-0.8v-2.4c0-0.5,0.2-0.8,0.7-0.8H506z M504,50.7c0.5,0,0.7,0.3,0.7,0.8v2.3c0,0.6-0.2,0.8-0.7,0.8
			h-39.8c-0.5,0-0.7-0.3-0.7-0.8v-2.3c0-0.6,0.2-0.8,0.7-0.8H504z M488,23.2c0,0.5-0.2,0.8-0.6,0.9c-0.4,0-0.6,0.4-0.6,1.2v47.6
			c0,0.5-0.3,0.8-0.9,0.8h-2.4c-0.6,0-0.9-0.3-0.9-0.8V23.2c0-0.5,0.3-0.7,0.9-0.7C486.5,22.4,488,22.7,488,23.2z"/>
		<path class="st0" d="M539.9,22.4l4.1,0.3c0.6,0.2,0.9,0.4,0.9,0.6c0,0.3-0.2,0.6-0.6,0.7c-0.5,0.2-0.7,0.5-0.7,1.1l0.2,19.8
			c0,3.5-0.3,6.2-0.9,8.1c-0.5,2.8-1.6,5.2-3.4,7.3c-1.4,1.9-3.4,3.8-6.1,5.8c-3.3,2.4-7.1,4.3-11.3,5.8c-2.7,0.9-4.6,1.3-5.6,1.3
			c-0.3,0-0.5-0.2-0.7-0.6c-0.5-1.1-1.1-2-1.7-2.9c-0.3-0.1-0.4-0.2-0.4-0.3c0-0.3,0.1-0.4,0.4-0.4c3.7-0.5,6.7-1.2,9-2.1
			c3-1.1,5.5-2.4,7.5-3.8c2.3-1.4,4.1-3.1,5.4-5c1.4-1.6,2.3-3.3,2.6-5.2c0.7-2,1.1-4.6,1.1-8.1l-0.2-18.2c0-1.6,0-2.8-0.1-3.5
			C539.5,22.7,539.7,22.4,539.9,22.4z M565.3,49.8c0.4,0,0.7,0.2,0.7,0.7v2.1c0,0.5-0.2,0.7-0.7,0.7h-49c-0.4,0-0.7-0.2-0.7-0.7
			v-2.1c0-0.5,0.2-0.7,0.7-0.7H565.3z M523.4,30.8h2.4c0.6,0,0.9,0.2,0.9,0.7v19.3c0,0.5-0.3,0.8-0.9,0.8h-2.4
			c-0.6,0-0.9-0.3-0.9-0.8V31.5C522.6,31.1,522.9,30.8,523.4,30.8z M559.7,30.8c0.6,0,0.9,0.3,0.9,0.8v19.2c0,0.5-0.3,0.8-0.9,0.8
			h-2.4c-0.6,0-0.9-0.3-0.9-0.8V34.4h-31c-0.4,0-0.7-0.2-0.7-0.7v-2.1c0-0.5,0.2-0.7,0.7-0.7h34.3V30.8z M547.2,58.1
			c1.5,2,3.5,3.8,5.9,5.3c2.7,1.8,5.8,3.2,9.3,4.3c1.7,0.5,3.3,0.9,4.8,1.2c0.5,0.2,0.7,0.3,0.7,0.4c0,0.4-0.1,0.7-0.4,0.9
			c-0.6,0.8-1.3,1.6-1.9,2.2c-0.2,0.4-0.4,0.5-0.7,0.5s-1.5-0.3-3.4-0.8c-4.9-1.7-8.8-3.6-11.7-5.7c-2.3-1.7-4.3-3.6-6.1-5.8
			c-1.6-2.1-3-4.6-4.3-7.6c0-0.4,1.3-0.9,3.9-1.5C544.4,54,545.7,56.2,547.2,58.1z"/>
		<path class="st0" d="M579,21.8l4,1.5c0.4,0.3,0.6,0.5,0.6,0.8c0,0.4-0.2,0.6-0.6,0.8c-0.4,0-0.6,0.2-0.7,0.5
			c-0.8,2.4-1.5,4.2-2.1,5.4c-0.7,1.3-1.5,2.6-2.3,3.8c-0.8,1.1-1.7,2-2.6,2.9c-0.5,0-0.9-0.1-1.2-0.2c-0.7-0.3-1.4-0.7-2.2-0.9
			c-0.3-0.1-0.4-0.2-0.4-0.4c0-0.1,0.1-0.2,0.2-0.3c1.4-1.3,2.6-2.9,3.8-4.8c0.7-1.1,1.2-2.3,1.7-3.6c0.5-1.3,1-3,1.5-5.1
			C578.8,21.9,578.9,21.8,579,21.8z M588.8,57.1l3.5,1.9c-2.1,2.4-3.8,4.3-5.3,5.7c-1.5,1.4-3.1,2.7-5,3.9c-2.1,1.3-4.1,2.4-6.2,3.3
			c-0.4,0-0.8-0.1-1-0.4c-0.8-0.7-1.5-1.4-2.3-2.1c-0.1-0.3-0.2-0.5-0.2-0.6c2-0.7,3.6-1.4,4.8-2.1c1.8-0.9,3.7-2.2,5.7-3.8
			C584.3,61.9,586.3,59.9,588.8,57.1z M607.8,55.5c0.4,0,0.6,0.2,0.6,0.7v1.9c0,0.5-0.2,0.7-0.6,0.7h-33.2c-0.4,0-0.6-0.2-0.6-0.7
			v-1.9c0-0.5,0.2-0.7,0.6-0.7H607.8z M616.7,39.7l-0.4,3.5h-39.5c-0.5,0-0.7-0.2-0.7-0.7v-2.1c0-0.5,0.2-0.7,0.7-0.7H616.7z
			 M584.2,51.8c0.7,1.4,1.4,2.9,1.9,4.5c0,0.2-1.2,0.6-3.7,1.2c-0.2-1-0.7-2.3-1.4-3.8c-0.8-1.7-1.8-3.4-3-5.2c0-0.3,1-0.9,3.1-1.9
			C582.4,48.6,583.4,50.3,584.2,51.8z M618.2,25.9c0.4,0,0.6,0.2,0.6,0.7v1.9c0,0.5-0.2,0.7-0.6,0.7h-38.3c-0.4,0-0.6-0.2-0.6-0.7
			v-1.9c0-0.5,0.2-0.7,0.6-0.7H618.2z M614,32.9c0.4,0,0.6,0.2,0.6,0.7v1.9c0,0.5-0.2,0.7-0.6,0.7h-31.9c-0.4,0-0.6-0.2-0.6-0.7
			v-1.9c0-0.5,0.2-0.7,0.6-0.7H614z M588.9,57.1h3.3c2.2,2.3,4.1,4.1,5.6,5.3c1.6,1.3,3.6,2.5,5.9,3.6c1.9,0.9,3.8,1.6,5.7,2
			c0,0.3-0.2,0.5-0.5,0.6c-0.8,0.8-1.5,1.5-2,2.2c-0.2,0.3-0.4,0.4-0.5,0.4c-2.9-1.1-5.3-2.3-7.1-3.6c-2.1-1.4-3.9-2.8-5.4-4.3
			C592.3,61.8,590.6,59.7,588.9,57.1z M594.2,45.2c0,0.5-0.2,0.7-0.6,0.8c-0.4,0-0.6,0.4-0.6,1.1v26.2c0,0.5-0.3,0.7-0.8,0.7H590
			c-0.5,0-0.8-0.2-0.8-0.7v-28c0-0.4,0.3-0.6,0.8-0.6C592.8,44.5,594.2,44.8,594.2,45.2z M602,46.1l3.2,1.3c0.5,0.2,0.8,0.5,0.8,0.8
			s-0.2,0.5-0.7,0.7c-0.6,0-1,0.2-1.1,0.7c-1.7,3.3-3.3,5.9-5,7.7c-0.4,0.4-0.7,0.6-0.8,0.6c-0.2,0-0.5-0.1-0.9-0.3
			c-0.7-0.4-1.4-0.7-2-1c-0.3-0.1-0.4-0.2-0.4-0.3s0.1-0.2,0.3-0.4c1.5-1.6,2.7-3.1,3.5-4.3c1.1-1.6,2-3.2,2.5-4.8
			C601.6,46.3,601.8,46.1,602,46.1z M615,39.7h1.7c0.3,0,0.6,0.2,0.8,0.5c0.5,1.1,0.8,1.8,0.8,2c-1.3,2.6-2.1,5.1-2.4,7.3
			c-0.5,2-0.8,4.1-0.8,6c0,4.1,0.5,7.3,1.5,9.6c0.8,1.9,1.6,2.8,2.3,2.8c0.4,0,0.7-0.3,0.8-0.8c0.3-0.5,0.6-2.1,0.9-4.8
			c0.1-0.3,0.2-0.4,0.5-0.4s0.4,0.1,0.6,0.4c0.7,0.6,1.3,1.1,1.9,1.5c0.3,0.1,0.4,0.4,0.4,0.8c-0.9,3.5-1.9,6-3.1,7.7
			c-0.5,0.8-1.2,1.1-2,1.1c-1.2,0-2.4-0.8-3.6-2.3c-1.4-1.7-2.4-3.9-3-6.5c-0.7-2.9-1-5.9-1-9.1C611.4,51.5,612.6,46.2,615,39.7z"/>
		<path class="st0" d="M646.3,20.9c3.1,1.5,4.6,2.4,4.6,2.7c0,0.4-0.1,0.5-0.4,0.5c-0.6,0-1,0.2-1.2,0.6c-3,3.7-5.9,6.5-8.8,8.3
			c-1.6,1.1-4.4,2.8-8.4,4.9c-0.4,0-0.8-0.2-1.1-0.5c-0.5-0.4-1.1-0.9-1.7-1.4c-0.3-0.2-0.4-0.4-0.4-0.6c2.1-1.1,4.1-2.3,6.2-3.5
			c2.7-1.6,5-3.3,7-5.3c1.7-1.7,3-3.5,4-5.1C646.1,21,646.2,20.9,646.3,20.9z M658.2,57.3l3.5,1.3c-1.8,1.7-3.7,3.1-5.8,4.3
			c-2.1,1.4-4.4,2.7-6.8,3.8c-2.6,1.2-5.5,2.3-8.7,3.3c-3.9,1.1-6.2,1.7-6.8,1.7c-0.2,0-0.5-0.2-0.7-0.7c-0.6-0.7-1.2-1.4-2-2.1
			c-0.3-0.3-0.5-0.6-0.5-0.7c4.4-0.8,8.1-1.6,11.1-2.4c3.1-0.9,6.1-2,9.2-3.5C652.5,61.2,655.1,59.6,658.2,57.3z M654.9,51.8
			l3.5,1.3c-1.5,1.4-3,2.5-4.7,3.5c-1.8,1.1-3.6,2.2-5.6,3.1c-2.1,1-4.5,1.8-7.1,2.7c-3.2,0.9-5.1,1.4-5.6,1.4
			c-0.2,0-0.5-0.2-0.7-0.7c-0.6-0.7-1.2-1.4-2-2.1c-0.3-0.3-0.5-0.6-0.5-0.7c3.6-0.6,6.6-1.2,9.1-1.9s5-1.6,7.5-2.7
			C650.2,54.8,652.3,53.5,654.9,51.8z M655.1,43.6l3.5,1.3c-1.4,1.4-2.9,2.6-4.5,3.6c-1.7,1.2-3.5,2.3-5.4,3.2c-2,1-4.3,1.9-6.9,2.8
			c-3.1,1-4.9,1.4-5.4,1.4c-0.2,0-0.5-0.2-0.7-0.7c-0.6-0.7-1.2-1.4-2-2.1c-0.3-0.3-0.5-0.6-0.5-0.7c3.5-0.6,6.4-1.3,8.7-2
			c2.4-0.7,4.8-1.7,7.2-2.8C650.6,46.8,652.6,45.5,655.1,43.6z M636.6,32.6h2.3c0.6,0,0.9,0.2,0.9,0.7v14c0,0.5-0.3,0.7-0.9,0.7
			h-2.3c-0.5,0-0.8-0.2-0.8-0.7v-14C635.8,32.8,636.1,32.6,636.6,32.6z M674.1,32.6c0.5,0,0.8,0.2,0.8,0.7v13.3
			c0,0.5-0.3,0.7-0.9,0.7h-2.3c-0.5,0-0.8-0.2-0.8-0.7V36.1h-32.5c-0.4,0-0.7-0.2-0.7-0.7v-2.1c0-0.5,0.2-0.7,0.7-0.7H674.1z
			 M672.2,42.3c0.4,0,0.7,0.2,0.7,0.7v2.1c0,0.5-0.2,0.7-0.7,0.7h-33.8c-0.4,0-0.7-0.2-0.7-0.7V43c0-0.5,0.2-0.7,0.7-0.7H672.2z
			 M665.8,24.7l-1.1,3.3h-19.1c-0.5,0-0.7-0.2-0.7-0.7v-1.9c0-0.5,0.2-0.7,0.7-0.7C645.6,24.7,665.8,24.7,665.8,24.7z M660.6,55.4
			c1.3,2.8,1.9,5.7,1.9,8.6c0,2.5-0.3,4.5-0.8,5.9c-0.6,1.3-1.4,2.3-2.4,2.9c-1.4,0.8-3.3,1.2-5.8,1.2c-2.4,0-3.6-0.5-3.7-1.4
			c-0.2-0.8-0.5-1.6-1-2.6c0-0.3,0.1-0.4,0.2-0.4c1.9,0.3,3.4,0.5,4.6,0.5c1.8,0,3-0.5,3.8-1.5c0.7-0.9,1.1-2.4,1.1-4.6
			c0-2.6-0.4-4.8-1.3-6.6c-0.9-2.2-2.9-5.1-6-8.7l2.9-2.4C657.1,49.7,659.3,52.7,660.6,55.4z M664.7,24.7h1.1c0.5,0,0.8,0.1,1,0.2
			c0.7,0.6,1.1,1.1,1.1,1.4l-10.6,8.4c-0.2,0.2-0.5,0.3-0.8,0.3c-2.2-0.6-3.2-1.1-3.2-1.6L664.7,24.7z M653.2,34.4h4v9
			c0,0.5-0.3,0.7-0.9,0.7H654c-0.5,0-0.8-0.2-0.8-0.7V34.4z M666.8,61.1c2.2,1.6,4.4,3,6.5,4.1c2.4,1.2,4.8,2,7.1,2.4
			c0,0.3-0.1,0.5-0.4,0.7c-1.2,0.9-2,1.6-2.5,2.2c-0.1,0.2-0.4,0.3-0.8,0.3c-3.9-1.2-7.6-3.2-11.2-6c-2-1.3-4.6-3.8-8.1-7.4l2.7-2.3
			C662.7,57.8,664.9,59.8,666.8,61.1z M671.5,50c0.3,0,0.5,0.1,0.8,0.4c2.3,1.5,3.4,2.5,3.4,2.8c0,0.6-0.2,0.9-0.6,0.9l-1.3-0.3
			c-0.5,0-1.2,0.2-1.9,0.5c-2.5,1.2-5.7,2.9-9.4,4.9c-2-1.1-3-1.9-3-2.3c0-0.1,0.2-0.3,0.5-0.4c4-2.1,7.4-4.1,10.1-6.1
			C670.6,50.2,671.1,50,671.5,50z"/>
		<path class="st0" d="M692.7,24.2h2.3c0.6,0,0.9,0.2,0.9,0.7c0,5.4,0,10.8,0,16.3c0,6.9-0.4,12.3-1.3,16.2
			c-0.5,3.4-1.6,6.7-3.2,10.1c-0.9,2-2.1,3.9-3.7,5.7c-0.3,0-0.5,0-0.6-0.1c-0.7-0.6-1.4-1.1-2.1-1.5c-0.2-0.2-0.3-0.5-0.3-0.8
			c1.4-1.6,2.8-3.9,3.9-6.9c1.2-3.1,2-6.4,2.6-9.7c0.5-3.5,0.8-7.9,0.8-13c0-4.7,0-10.1,0-16.3C691.9,24.4,692.2,24.2,692.7,24.2z
			 M730.6,24.2c0.5,0,0.8,0.2,0.8,0.7v12c0,0.5-0.3,0.7-0.9,0.7h-2.3c-0.5,0-0.8-0.2-0.8-0.7v-9.2h-32.9c-0.4,0-0.7-0.2-0.7-0.7
			v-2.1c0-0.5,0.2-0.7,0.7-0.7C694.5,24.2,730.6,24.2,730.6,24.2z M728.8,34.1c0.4,0,0.7,0.2,0.7,0.7v2.1c0,0.5-0.2,0.7-0.7,0.7
			h-34.2c-0.4,0-0.7-0.2-0.7-0.7v-2.1c0-0.5,0.2-0.7,0.7-0.7H728.8z M733.9,43.2l-1.6,3.5h-37.6c-0.5,0-0.8-0.2-0.8-0.7v-2.1
			c0-0.5,0.3-0.7,0.8-0.7H733.9z M701.5,51.8h2.3c0.6,0,0.9,0.2,0.9,0.7v16.6c0,0.5-0.3,0.7-0.9,0.7h-2.3c-0.5,0-0.8-0.2-0.8-0.7
			V52.5C700.7,52,701,51.8,701.5,51.8z M721.3,51.8c0.5,0,0.8,0.2,0.8,0.7v12.2c0,0.5-0.3,0.7-0.9,0.7H719c-0.5,0-0.8-0.2-0.8-0.7
			v-9.4h-14.8c-0.4,0-0.7-0.2-0.7-0.7v-2.1c0-0.5,0.2-0.7,0.7-0.7C703.4,51.8,721.3,51.8,721.3,51.8z M719.5,62
			c0.4,0,0.7,0.2,0.7,0.7v2.1c0,0.5-0.2,0.7-0.7,0.7h-16.1c-0.4,0-0.7-0.2-0.7-0.7v-2.1c0-0.5,0.2-0.7,0.7-0.7
			C703.4,62,719.5,62,719.5,62z M730.9,43.2h3c0.5,0,0.7,0.3,0.7,0.8c-0.1,8.1-0.4,13.9-0.9,17.4c-0.5,4.3-1.2,7.4-2.2,9.5
			c-0.8,2.2-3.2,3.3-7,3.3c-3,0-4.6-0.4-4.7-1.2c-0.3-0.9-0.9-2-1.9-3.2c0-0.4,0.1-0.5,0.2-0.5c2.3,0.3,4.5,0.4,6.4,0.4
			c2,0,3.2-0.7,3.8-2.2c0.7-1.3,1.2-3.7,1.5-7.1C730.4,57,730.8,51.3,730.9,43.2z"/>
	</g>
</g>
</svg>
